<svg width="30" height="30" viewBox="0 0 30 30" fill="none" xmlns="http://www.w3.org/2000/svg">
<circle cx="15" cy="15" r="15" fill="#C99B23"/>
<path d="M15.3977 11.2727H16.4545V17.5114C16.4545 18.0682 16.3523 18.5412 16.1477 18.9304C15.9432 19.3196 15.6548 19.6151 15.2827 19.8168C14.9105 20.0185 14.4716 20.1193 13.9659 20.1193C13.4886 20.1193 13.0639 20.0327 12.6918 19.8594C12.3196 19.6832 12.027 19.4332 11.8139 19.1094C11.6009 18.7855 11.4943 18.4006 11.4943 17.9545H12.5341C12.5341 18.2017 12.5952 18.4176 12.7173 18.6023C12.8423 18.7841 13.0128 18.9261 13.2287 19.0284C13.4446 19.1307 13.6903 19.1818 13.9659 19.1818C14.2699 19.1818 14.5284 19.1179 14.7415 18.9901C14.9545 18.8622 15.1165 18.6747 15.2273 18.4276C15.3409 18.1776 15.3977 17.8722 15.3977 17.5114V11.2727Z" fill="white"/>
</svg>
