<svg width="30" height="30" viewBox="0 0 30 30" fill="none" xmlns="http://www.w3.org/2000/svg">
<circle cx="15" cy="15" r="15" fill="#258B42"/>
<path d="M12.0568 20V11.2727H15.108C15.7159 11.2727 16.2173 11.3778 16.6122 11.5881C17.0071 11.7955 17.3011 12.0753 17.4943 12.4276C17.6875 12.777 17.7841 13.1648 17.7841 13.5909C17.7841 13.9659 17.7173 14.2756 17.5838 14.5199C17.4531 14.7642 17.2798 14.9574 17.0639 15.0994C16.8509 15.2415 16.6193 15.3466 16.3693 15.4148V15.5C16.6364 15.517 16.9048 15.6108 17.1747 15.7812C17.4446 15.9517 17.6705 16.196 17.8523 16.5142C18.0341 16.8324 18.125 17.2216 18.125 17.6818C18.125 18.1193 18.0256 18.5128 17.8267 18.8622C17.6278 19.2116 17.3139 19.4886 16.8849 19.6932C16.456 19.8977 15.8977 20 15.2102 20H12.0568ZM13.1136 19.0625H15.2102C15.9006 19.0625 16.3906 18.929 16.6804 18.6619C16.973 18.392 17.1193 18.0653 17.1193 17.6818C17.1193 17.3864 17.044 17.1136 16.8935 16.8636C16.7429 16.6108 16.5284 16.4091 16.25 16.2585C15.9716 16.1051 15.642 16.0284 15.2614 16.0284H13.1136V19.0625ZM13.1136 15.108H15.0739C15.392 15.108 15.679 15.0455 15.9347 14.9205C16.1932 14.7955 16.3977 14.6193 16.5483 14.392C16.7017 14.1648 16.7784 13.8977 16.7784 13.5909C16.7784 13.2074 16.6449 12.8821 16.3778 12.6151C16.1108 12.3452 15.6875 12.2102 15.108 12.2102H13.1136V15.108Z" fill="white"/>
</svg>
